<mxfile host="app.diagrams.net" modified="2023-03-11T14:23:27.552Z" agent="5.0 (Windows NT 10.0; Win64; x64) AppleWebKit/537.36 (KHTML, like Gecko) Chrome/111.0.0.0 Safari/537.36 Edg/111.0.0.0" etag="rYYk3_3brLYt_PHgBDVU" version="21.0.6" type="github">
  <diagram name="第 1 页" id="dtTqG8q4z3wXAbTr9Uq1">
    <mxGraphModel dx="936" dy="547" grid="1" gridSize="10" guides="1" tooltips="1" connect="1" arrows="1" fold="1" page="1" pageScale="1" pageWidth="827" pageHeight="1169" math="0" shadow="0">
      <root>
        <mxCell id="0" />
        <mxCell id="1" parent="0" />
        <mxCell id="_mivhT9usBkyhCJlWsLT-1" value="FCNN-UL-PE" style="rounded=0;whiteSpace=wrap;html=1;" vertex="1" parent="1">
          <mxGeometry x="230" y="260" width="120" height="60" as="geometry" />
        </mxCell>
        <mxCell id="_mivhT9usBkyhCJlWsLT-2" value="MC-GPRP" style="rounded=0;whiteSpace=wrap;html=1;" vertex="1" parent="1">
          <mxGeometry x="390" y="260" width="120" height="60" as="geometry" />
        </mxCell>
        <mxCell id="_mivhT9usBkyhCJlWsLT-3" value="CL-GRU-BP" style="rounded=0;whiteSpace=wrap;html=1;" vertex="1" parent="1">
          <mxGeometry x="550" y="260" width="120" height="60" as="geometry" />
        </mxCell>
        <mxCell id="_mivhT9usBkyhCJlWsLT-4" value="Multi-unit Collaborated Gaussian process regression Positioning algorithms" style="whiteSpace=wrap;html=1;" vertex="1" parent="1">
          <mxGeometry x="250" y="400" width="290" height="60" as="geometry" />
        </mxCell>
        <mxCell id="_mivhT9usBkyhCJlWsLT-6" value="&lt;div&gt;Closed-loop GRU Beam Prediction&amp;nbsp;&lt;/div&gt;&lt;div&gt;Open-loop&amp;nbsp;&lt;/div&gt;" style="whiteSpace=wrap;html=1;" vertex="1" parent="1">
          <mxGeometry x="570" y="410" width="290" height="60" as="geometry" />
        </mxCell>
      </root>
    </mxGraphModel>
  </diagram>
</mxfile>
